HIERARCHY
ROOT Hips
{
  OFFSET -615.852 92.7214 1114.02
  CHANNELS 6 Xposition Yposition Zposition Zrotation Xrotation Yrotation
  JOINT Spine
  {
    OFFSET 0 8 7.28567e-05
    CHANNELS 6 Xposition Yposition Zposition Zrotation Xrotation Yrotation
    JOINT Spine1
    {
      OFFSET 1.06e-05 8 -0.000350754
      CHANNELS 6 Xposition Yposition Zposition Zrotation Xrotation Yrotation
      JOINT Spine2
      {
        OFFSET -0.000926946 8 0.00018029
        CHANNELS 6 Xposition Yposition Zposition Zrotation Xrotation Yrotation
        JOINT Spine3
        {
          OFFSET 0 8 0
          CHANNELS 6 Xposition Yposition Zposition Zrotation Xrotation Yrotation
          JOINT Neck
          {
            OFFSET 0.00052732 17 8.76513e-05
            CHANNELS 6 Xposition Yposition Zposition Zrotation Xrotation Yrotation
            JOINT Head
            {
              OFFSET 0.000116467 10.8 -5.51945e-05
              CHANNELS 6 Xposition Yposition Zposition Zrotation Xrotation Yrotation
              End Site
              {
                OFFSET 0 20.25 0
              }
            }
          }
          JOINT LeftShoulder
          {
            OFFSET 5.00051 16.9998 -0.000380758
            CHANNELS 6 Xposition Yposition Zposition Zrotation Xrotation Yrotation
            JOINT LeftShoulder2
            {
              OFFSET 6.45 0 0
              CHANNELS 6 Xposition Yposition Zposition Zrotation Xrotation Yrotation
              JOINT LeftArm
              {
                OFFSET 6.45008 7.94969e-05 -0.000367088
                CHANNELS 6 Xposition Yposition Zposition Zrotation Xrotation Yrotation
                JOINT LeftForeArm
                {
                  OFFSET 8.62098e-05 -32.4001 -1.99993
                  CHANNELS 6 Xposition Yposition Zposition Zrotation Xrotation Yrotation
                  JOINT LeftHand
                  {
                    OFFSET -0.0001279 -25.65 1.9999
                    CHANNELS 6 Xposition Yposition Zposition Zrotation Xrotation Yrotation
                    JOINT LeftHandThumb1
                    {
                      OFFSET -0.500674 -1.49678 2.65057
                      CHANNELS 6 Xposition Yposition Zposition Zrotation Xrotation Yrotation
                      JOINT LeftHandThumb2
                      {
                        OFFSET 0.000361092 -3.80001 3.70005
                        CHANNELS 6 Xposition Yposition Zposition Zrotation Xrotation Yrotation
                        JOINT LeftHandThumb3
                        {
                          OFFSET 0.000190868 -3.00065 2.69958
                          CHANNELS 6 Xposition Yposition Zposition Zrotation Xrotation Yrotation
                          End Site
                          {
                            OFFSET -7.02421e-05 -2.30006 1.80004
                          }
                        }
                      }
                    }
                    JOINT LeftHandIndex
                    {
                      OFFSET -4.67865e-05 -1.89985 1.60006
                      CHANNELS 6 Xposition Yposition Zposition Zrotation Xrotation Yrotation
                      JOINT LeftHandIndex1
                      {
                        OFFSET 0.00130873 -8.30463 1.89871
                        CHANNELS 6 Xposition Yposition Zposition Zrotation Xrotation Yrotation
                        JOINT LeftHandIndex2
                        {
                          OFFSET -0.000153594 -4.49864 -0.000417717
                          CHANNELS 6 Xposition Yposition Zposition Zrotation Xrotation Yrotation
                          JOINT LeftHandIndex3
                          {
                            OFFSET -0.000738565 -3.39939 -0.000400009
                            CHANNELS 6 Xposition Yposition Zposition Zrotation Xrotation Yrotation
                            End Site
                            {
                              OFFSET 9.81053e-05 -2.60003 0
                            }
                          }
                        }
                      }
                    }
                    JOINT LeftHandMiddle
                    {
                      OFFSET -0.250745 -2.19714 0.400896
                      CHANNELS 6 Xposition Yposition Zposition Zrotation Xrotation Yrotation
                      JOINT LeftHandMiddle1
                      {
                        OFFSET -0.000773875 -8.30013 1.00025
                        CHANNELS 6 Xposition Yposition Zposition Zrotation Xrotation Yrotation
                        JOINT LeftHandMiddle2
                        {
                          OFFSET 0.000138778 -4.64633 0.00139065
                          CHANNELS 6 Xposition Yposition Zposition Zrotation Xrotation Yrotation
                          JOINT LeftHandMiddle3
                          {
                            OFFSET -0.000309553 -3.3014 3.45812e-05
                            CHANNELS 6 Xposition Yposition Zposition Zrotation Xrotation Yrotation
                            End Site
                            {
                              OFFSET 0.00106852 -2.69888 0.000515586
                            }
                          }
                        }
                      }
                    }
                    JOINT LeftHandRing
                    {
                      OFFSET -0.500824 -2.14654 -0.79897
                      CHANNELS 6 Xposition Yposition Zposition Zrotation Xrotation Yrotation
                      JOINT LeftHandRing1
                      {
                        OFFSET 4.72231e-05 -7.75005 -0.19996
                        CHANNELS 6 Xposition Yposition Zposition Zrotation Xrotation Yrotation
                        JOINT LeftHandRing2
                        {
                          OFFSET 0.000459018 -3.80026 -0.000353602
                          CHANNELS 6 Xposition Yposition Zposition Zrotation Xrotation Yrotation
                          JOINT LeftHandRing3
                          {
                            OFFSET -0.00022998 -3.39766 -0.00045283
                            CHANNELS 6 Xposition Yposition Zposition Zrotation Xrotation Yrotation
                            End Site
                            {
                              OFFSET -0.00150214 -2.59829 -0.00123165
                            }
                          }
                        }
                      }
                    }
                    JOINT LeftHandPinky
                    {
                      OFFSET -0.750735 -1.75126 -1.85107
                      CHANNELS 6 Xposition Yposition Zposition Zrotation Xrotation Yrotation
                      JOINT LeftHandPinky1
                      {
                        OFFSET 0.000447484 -7.15052 -1.00029
                        CHANNELS 6 Xposition Yposition Zposition Zrotation Xrotation Yrotation
                        JOINT LeftHandPinky2
                        {
                          OFFSET 0.00113635 -2.99701 -0.000254484
                          CHANNELS 6 Xposition Yposition Zposition Zrotation Xrotation Yrotation
                          JOINT LeftHandPinky3
                          {
                            OFFSET 3.0749e-05 -2.3491 -0.00134328
                            CHANNELS 6 Xposition Yposition Zposition Zrotation Xrotation Yrotation
                            End Site
                            {
                              OFFSET 0.000162764 -2.09981 -2.71424e-05
                            }
                          }
                        }
                      }
                    }
                  }
                }
              }
            }
          }
          JOINT RightShoulder
          {
            OFFSET -4.99951 17.0002 0.000671423
            CHANNELS 6 Xposition Yposition Zposition Zrotation Xrotation Yrotation
            JOINT RightShoulder2
            {
              OFFSET -6.45 0 0
              CHANNELS 6 Xposition Yposition Zposition Zrotation Xrotation Yrotation
              JOINT RightArm
              {
                OFFSET -6.44992 -0.000148045 0.000841096
                CHANNELS 6 Xposition Yposition Zposition Zrotation Xrotation Yrotation
                JOINT RightForeArm
                {
                  OFFSET 0 -32.3999 -1.99993
                  CHANNELS 6 Xposition Yposition Zposition Zrotation Xrotation Yrotation
                  JOINT RightHand
                  {
                    OFFSET 1.604e-05 -25.6499 2.00005
                    CHANNELS 6 Xposition Yposition Zposition Zrotation Xrotation Yrotation
                    JOINT RightHandThumb1
                    {
                      OFFSET 0.499322 -1.49951 2.64979
                      CHANNELS 6 Xposition Yposition Zposition Zrotation Xrotation Yrotation
                      JOINT RightHandThumb2
                      {
                        OFFSET 1.45224e-05 -3.8 3.69997
                        CHANNELS 6 Xposition Yposition Zposition Zrotation Xrotation Yrotation
                        JOINT RightHandThumb3
                        {
                          OFFSET -6.86138e-05 -3.00001 2.7
                          CHANNELS 6 Xposition Yposition Zposition Zrotation Xrotation Yrotation
                          End Site
                          {
                            OFFSET -0.000311922 -2.30014 1.79985
                          }
                        }
                      }
                    }
                    JOINT RightHandIndex
                    {
                      OFFSET -0.000764902 -1.8994 1.60035
                      CHANNELS 6 Xposition Yposition Zposition Zrotation Xrotation Yrotation
                      JOINT RightHandIndex1
                      {
                        OFFSET -0.000118756 -8.29994 1.89952
                        CHANNELS 6 Xposition Yposition Zposition Zrotation Xrotation Yrotation
                        JOINT RightHandIndex2
                        {
                          OFFSET 0.000161633 -4.50022 0.000512107
                          CHANNELS 6 Xposition Yposition Zposition Zrotation Xrotation Yrotation
                          JOINT RightHandIndex3
                          {
                            OFFSET 2.3644e-05 -3.39996 3.68734e-05
                            CHANNELS 6 Xposition Yposition Zposition Zrotation Xrotation Yrotation
                            End Site
                            {
                              OFFSET -5.02736e-05 -2.6001 -4.13943e-05
                            }
                          }
                        }
                      }
                    }
                    JOINT RightHandMiddle
                    {
                      OFFSET 0.251127 -2.20095 0.399338
                      CHANNELS 6 Xposition Yposition Zposition Zrotation Xrotation Yrotation
                      JOINT RightHandMiddle1
                      {
                        OFFSET -0.000560731 -8.29964 0.999898
                        CHANNELS 6 Xposition Yposition Zposition Zrotation Xrotation Yrotation
                        JOINT RightHandMiddle2
                        {
                          OFFSET 0.0010609 -4.65105 -3.99011e-05
                          CHANNELS 6 Xposition Yposition Zposition Zrotation Xrotation Yrotation
                          JOINT RightHandMiddle3
                          {
                            OFFSET 0.00139248 -3.30093 -0.00039013
                            CHANNELS 6 Xposition Yposition Zposition Zrotation Xrotation Yrotation
                            End Site
                            {
                              OFFSET 0.00311023 -2.69895 -0.00104383
                            }
                          }
                        }
                      }
                    }
                    JOINT RightHandRing
                    {
                      OFFSET 0.49965 -2.14978 -0.800919
                      CHANNELS 6 Xposition Yposition Zposition Zrotation Xrotation Yrotation
                      JOINT RightHandRing1
                      {
                        OFFSET 0 -7.75021 -0.200037
                        CHANNELS 6 Xposition Yposition Zposition Zrotation Xrotation Yrotation
                        JOINT RightHandRing2
                        {
                          OFFSET -0.00141508 -3.79806 0.00187341
                          CHANNELS 6 Xposition Yposition Zposition Zrotation Xrotation Yrotation
                          JOINT RightHandRing3
                          {
                            OFFSET -5.39211e-05 -3.40004 0
                            CHANNELS 6 Xposition Yposition Zposition Zrotation Xrotation Yrotation
                            End Site
                            {
                              OFFSET 0.00183869 -2.59899 0.000610328
                            }
                          }
                        }
                      }
                    }
                    JOINT RightHandPinky
                    {
                      OFFSET 0.749244 -1.74952 -1.84939
                      CHANNELS 6 Xposition Yposition Zposition Zrotation Xrotation Yrotation
                      JOINT RightHandPinky1
                      {
                        OFFSET -0.000906111 -7.14967 -1.00222
                        CHANNELS 6 Xposition Yposition Zposition Zrotation Xrotation Yrotation
                        JOINT RightHandPinky2
                        {
                          OFFSET 0.00421117 -2.99815 -0.00230144
                          CHANNELS 6 Xposition Yposition Zposition Zrotation Xrotation Yrotation
                          JOINT RightHandPinky3
                          {
                            OFFSET -0.000141382 -2.35052 0.000590279
                            CHANNELS 6 Xposition Yposition Zposition Zrotation Xrotation Yrotation
                            End Site
                            {
                              OFFSET 0.000218988 -2.10046 0.000105713
                            }
                          }
                        }
                      }
                    }
                  }
                }
              }
            }
          }
        }
      }
    }
  }
  JOINT LeftUpLeg
  {
    OFFSET 7.99996 0 -6.5354e-05
    CHANNELS 6 Xposition Yposition Zposition Zrotation Xrotation Yrotation
    JOINT LeftLeg
    {
      OFFSET -9.45053e-05 -45.0001 -0.999794
      CHANNELS 6 Xposition Yposition Zposition Zrotation Xrotation Yrotation
      JOINT LeftFoot
      {
        OFFSET -0.000438675 -41 -2.00048
        CHANNELS 6 Xposition Yposition Zposition Zrotation Xrotation Yrotation
        JOINT LeftToeBase
        {
          OFFSET 0 -7.5 12.4999
          CHANNELS 6 Xposition Yposition Zposition Zrotation Xrotation Yrotation
          JOINT LeftFootToe
          {
            OFFSET 0 0 4
            CHANNELS 6 Xposition Yposition Zposition Zrotation Xrotation Yrotation
            End Site
            {
              OFFSET 0 0 0
            }
          }
        }
      }
    }
  }
  JOINT RightUpLeg
  {
    OFFSET -7.99996 0 6.5354e-05
    CHANNELS 6 Xposition Yposition Zposition Zrotation Xrotation Yrotation
    JOINT RightLeg
    {
      OFFSET 0.000157963 -45 -0.999553
      CHANNELS 6 Xposition Yposition Zposition Zrotation Xrotation Yrotation
      JOINT RightFoot
      {
        OFFSET -0.000395977 -41.0001 -1.99965
        CHANNELS 6 Xposition Yposition Zposition Zrotation Xrotation Yrotation
        JOINT RightToeBase
        {
          OFFSET 0.000436974 -7.49998 12.4997
          CHANNELS 6 Xposition Yposition Zposition Zrotation Xrotation Yrotation
          JOINT RightFootToe
          {
            OFFSET 0 0 4
            CHANNELS 6 Xposition Yposition Zposition Zrotation Xrotation Yrotation
            End Site
            {
              OFFSET 0 0 0
            }
          }
        }
      }
    }
  }
}
MOTION
Frames:	3
Frame Time:	0.0166667
-593.411 91.1447 1100.25 2.18399 5.39095 -114.498 0 8 -1.7053e-13 9.61888 2.33955 8.24348 0 8 -1.13687e-13 0.147538 2.03231 3.32599 0 8 0 0.0811669 1.01387 1.66306 2.27374e-13 8 0 0.0777869 1.01259 1.66254 0 17 0 2.95066 1.05112 8.27487 -2.27374e-13 10.8 0 -1.72539 -7.38864 19.5361 5 17 0 5.3906 1.62078 -3.44667 6.45 0 -1.13687e-13 -0.830344 -0.321342 -0.531777 6.45 8.52651e-14 0 73.9451 -41.0289 65.223 1.13687e-13 -32.4 -2 -31.7405 5.90611 7.82856 0 -25.65 2 38.4991 23.7068 -45.5385 -0.5 -1.5 2.65 24.39 -33.5747 49.676 -1.13687e-13 -3.8 3.7 9.97026 23.6418 3.47568 1.13687e-13 -3 2.7 -0.000741141 19.9893 -0.0107716 0 -1.9 1.6 2.01583e-07 -1.47289e-06 -5.20715e-06 0 -8.3 1.9 -1.3829 -6.07466 -0.118287 1.13687e-13 -4.5 -1.7053e-13 0.0108263 0.00602411 0.517301 -1.13687e-13 -3.4 5.68434e-14 -0.00417459 0.436411 0.512155 -0.25 -2.2 0.4 2.01583e-07 -1.47289e-06 -5.20715e-06 2.27374e-13 -8.3 1 -1.06475 -4.83094 -0.0770868 -1.13687e-13 -4.65 -5.68434e-14 -31.7786 14.2751 -0.702736 0 -3.3 -5.68434e-14 -90.0002 0.0503061 -0.0269308 -0.5 -2.15 -0.8 2.01583e-07 -1.47289e-06 -5.20715e-06 -1.13687e-13 -7.75 -0.2 -0.391156 -2.80859 -0.00426037 -1.13687e-13 -3.8 0 -0.0221621 0.151156 0.0292208 2.27374e-13 -3.4 -2.27374e-13 -5.6545e-06 0.0225675 0.025293 -0.75 -1.75 -1.85 2.01583e-07 -1.47289e-06 -5.20715e-06 -3.41061e-13 -7.15 -1 -0.0610059 -1.68139 0.00671014 0 -3 -5.68434e-14 -0.0822778 -0.0231103 -0.104127 0 -2.35 1.13687e-13 -2.60098e-05 0.0214503 -0.0173705 -5 17 5.68434e-14 5.81903 -2.38928 3.15757 -6.45 -2.84217e-14 -5.68434e-14 -1.86789 0.248058 -2.19553 -6.45 0 -1.13687e-13 5.31013 -15.0456 23.0076 -1.13687e-13 -32.4 -2 18.8856 -64.6269 20.6896 3.41061e-13 -25.65 2 -19.1063 21.5127 37.832 0.5 -1.5 2.65 151.635 73.9775 21.6086 1.13687e-13 -3.8 3.7 0.0607735 51.4406 0.0301842 1.13687e-13 -3 2.7 0.00711387 11.0516 -0.00740438 2.27374e-13 -1.9 1.6 -4.69152e-06 6.47977e-06 -2.56683e-06 0 -8.3 1.9 0.55973 -6.38591 -0.00318613 1.13687e-13 -4.5 0 -0.011342 -0.00387356 0.016947 0 -3.4 0 -0.00011942 -0.0179059 -0.415893 0.25 -2.2 0.4 -4.69152e-06 6.47977e-06 -2.56683e-06 -1.13687e-13 -8.3 1 1.45215 -2.97523 -0.0217693 2.27374e-13 -4.65 2.27374e-13 -0.00203354 0.036531 0.000194108 2.27374e-13 -3.3 -1.13687e-13 -4.70074e-05 -0.00722921 0.000256727 0.5 -2.15 -0.8 -4.69152e-06 6.47977e-06 -2.56683e-06 2.27374e-13 -7.75 -0.2 3.24927 3.23655 -0.202331 -2.27374e-13 -3.8 0 1.11415 0.328648 -0.0102765 0 -3.4 0 1.1559 0.0311498 -0.0107617 0.75 -1.75 -1.85 -4.69152e-06 6.47977e-06 -2.56683e-06 1.13687e-13 -7.15 -1 4.23174 6.30847 -0.369024 1.13687e-13 -3 2.27374e-13 0.00889564 0.0154262 0.00204626 -1.13687e-13 -2.35 0 -0.0077442 0.0115425 -0.00213445 8 0 -1.13687e-13 16.7468 -15.4043 3.15589 0 -45 -1 -4.91552 1.99114 1.72804 0 -41 -2 -4.21342 8.34239 -22.263 0 -7.5 12.5 5.71136e-07 -0.00798189 -6.79088e-07 0 -7.10543e-15 4 3.98581 -6.56506 -13.6996 -8 0 -1.13687e-13 3.0288 8.87684 -12.1916 0 -45 -1 13.461 -12.529 1.61047 0 -41 -2 -8.71163 4.78725 -24.0286 0 -7.5 12.5 0.000110401 0.931297 -0.00677512 2.27374e-13 0 4 0.317747 1.84276 28.4321 
-593.41 91.1444 1100.24 2.18314 5.39099 -114.497 0 8 -1.13687e-13 9.62865 2.35594 8.24941 0 8 -1.7053e-13 0.148521 2.03115 3.3292 0 8 1.13687e-13 0.0811244 1.01348 1.66524 2.27374e-13 8 0 0.0778071 1.01239 1.66406 0 17 -1.13687e-13 2.92872 1.06152 8.28726 0 10.8 1.13687e-13 -1.77308 -7.3398 19.5595 5 17 1.13687e-13 5.34764 1.61002 -3.41185 6.45 -2.84217e-14 0 -0.825944 -0.31976 -0.522059 6.45 2.84217e-14 -1.13687e-13 73.8799 -40.9821 65.2041 -1.13687e-13 -32.4 -2 -31.6623 6.02902 7.77855 0 -25.65 2 38.2997 23.8204 -45.473 -0.5 -1.5 2.65 24.393 -33.623 49.6987 -1.13687e-13 -3.8 3.7 9.972 23.6388 3.47357 1.13687e-13 -3 2.7 -0.00228334 19.8698 -0.0105992 1.13687e-13 -1.9 1.6 2.01583e-07 -1.47289e-06 -5.20715e-06 0 -8.3 1.9 -1.30229 -5.56413 -0.107558 0 -4.5 -1.13687e-13 0.0109246 0.00596284 0.515291 0 -3.4 0 -0.00416441 0.436807 0.510199 -0.25 -2.2 0.4 2.01583e-07 -1.47289e-06 -5.20715e-06 0 -8.3 1 -0.998988 -4.27036 -0.0697967 -1.13687e-13 -4.65 1.13687e-13 -31.7785 14.275 -0.702766 -2.27374e-13 -3.3 -1.13687e-13 -90.0002 0.0502649 -0.0268569 -0.5 -2.15 -0.8 2.01583e-07 -1.47289e-06 -5.20715e-06 0 -7.75 -0.2 -0.352342 -2.09677 -0.00446327 -2.27374e-13 -3.8 -5.68434e-14 -0.0225002 0.151425 0.029845 0 -3.4 -2.27374e-13 -5.24833e-06 0.023162 0.0258884 -0.75 -1.75 -1.85 2.01583e-07 -1.47289e-06 -5.20715e-06 -2.27374e-13 -7.15 -1 -0.0370269 -0.912638 0.00633173 0 -3 -1.13687e-13 -0.0821168 -0.023048 -0.104808 2.27374e-13 -2.35 1.7053e-13 -2.49152e-05 0.0225612 -0.017655 -5 17 0 5.80311 -2.40488 3.20489 -6.45 0 5.68434e-14 -1.86963 0.252462 -2.20913 -6.45 0 -1.7053e-13 5.40449 -14.9586 22.8168 0 -32.4 -2 18.7277 -64.4082 19.7758 2.27374e-13 -25.65 2 -18.3892 22.2058 36.4613 0.5 -1.5 2.65 156.811 75.1779 15.0641 0 -3.8 3.7 0.0607724 51.4406 0.030186 0 -3 2.7 0.0071135 11.0516 -0.0074037 0 -1.9 1.6 -4.69152e-06 6.47977e-06 -2.56683e-06 -1.13687e-13 -8.3 1.9 0.635702 -6.7992 -0.00171178 2.27374e-13 -4.5 1.13687e-13 -0.0113136 -0.00378616 0.0157686 -1.13687e-13 -3.4 -1.13687e-13 -0.00011993 -0.0179218 -0.41703 0.25 -2.2 0.4 -4.69152e-06 6.47977e-06 -2.56683e-06 1.13687e-13 -8.3 1 1.4386 -3.57376 -0.0147113 1.13687e-13 -4.65 1.13687e-13 -0.00271461 0.0360653 0.000201883 2.27374e-13 -3.3 0 -4.79193e-05 -0.00846654 0.000287979 0.5 -2.15 -0.8 -4.69152e-06 6.47977e-06 -2.56683e-06 2.27374e-13 -7.75 -0.2 3.06292 2.41285 -0.160493 -2.27374e-13 -3.8 -1.13687e-13 0.453056 0.1328 -0.00634333 1.13687e-13 -3.4 0 0.47734 0.0136897 -0.00651694 0.75 -1.75 -1.85 -4.69152e-06 6.47977e-06 -2.56683e-06 1.13687e-13 -7.15 -1 3.94345 5.38889 -0.299661 0 -3 1.13687e-13 0.00835588 0.0160298 0.00184883 0 -2.35 0 -0.00771192 0.0122568 -0.00200448 8 0 -1.13687e-13 16.7405 -15.4074 3.1402 0 -45 -1 -4.89941 1.99703 1.72452 0 -41 -2 -4.23053 8.35124 -22.25 0 -7.5 12.5 5.71136e-07 -0.00798189 -6.79088e-07 0 1.42109e-14 4 4.00695 -6.56597 -13.6995 -8 0 0 3.02959 8.87934 -12.1894 2.27374e-13 -45 -1 13.461 -12.5294 1.6111 0 -41 -2 -8.71288 4.78522 -24.0301 0 -7.5 12.5 0.000110199 0.929591 -0.00677512 0 3.55271e-15 4 0.307647 1.8536 28.4323 
-593.41 91.144 1100.23 2.18349 5.39093 -114.498 -2.27374e-13 8 -1.13687e-13 9.6327 2.37036 8.25431 0 8 -2.84217e-13 0.149157 2.03032 3.33172 0 8 1.13687e-13 0.0809432 1.013 1.66686 2.27374e-13 8 -1.13687e-13 0.0778054 1.01217 1.66551 0 17 -5.68434e-14 2.90723 1.07567 8.30066 0 10.8 2.27374e-13 -1.82016 -7.29405 19.5852 5 17 1.7053e-13 5.32375 1.60435 -3.39539 6.45 0 -5.68434e-14 -0.820972 -0.318853 -0.508375 6.45 2.84217e-14 0 73.7783 -40.9151 65.2045 -1.13687e-13 -32.4 -2 -31.5891 6.12345 7.73118 0 -25.65 2 38.1543 23.9123 -45.3845 -0.5 -1.5 2.65 24.3298 -33.7088 49.6783 0 -3.8 3.7 9.9663 23.6225 3.47118 -5.68434e-14 -3 2.7 -0.00387555 19.5975 -0.0104472 1.13687e-13 -1.9 1.6 2.01583e-07 -1.47289e-06 -5.20715e-06 0 -8.3 1.9 -1.22468 -5.03908 -0.0972074 -1.13687e-13 -4.5 -1.13687e-13 0.011013 0.00590688 0.513279 0 -3.4 -1.13687e-13 -0.00415399 0.437194 0.508227 -0.25 -2.2 0.4 2.01583e-07 -1.47289e-06 -5.20715e-06 1.13687e-13 -8.3 1 -0.937632 -3.70172 -0.0625811 0 -4.65 0 -31.7785 14.2748 -0.7028 0 -3.3 5.68434e-14 -90.0002 0.0502074 -0.0267713 -0.5 -2.15 -0.8 2.01583e-07 -1.47289e-06 -5.20715e-06 0 -7.75 -0.2 -0.320657 -1.40513 -0.00462677 -1.13687e-13 -3.8 0 -0.0228363 0.151663 0.0304373 0 -3.4 -1.7053e-13 -4.86801e-06 0.0237439 0.0264606 -0.75 -1.75 -1.85 2.01583e-07 -1.47289e-06 -5.20715e-06 -2.27374e-13 -7.15 -1 -0.0210197 -0.172442 0.00580177 0 -3 -1.13687e-13 -0.0819558 -0.022988 -0.105436 1.13687e-13 -2.35 0 -2.37224e-05 0.0236817 -0.0179348 -5 17 -5.68434e-14 5.79765 -2.40528 3.24635 -6.45 0 0 -1.86994 0.256021 -2.22467 -6.45 -5.68434e-14 -5.68434e-14 5.47144 -14.9345 22.7236 0 -32.4 -2 18.4881 -64.0837 18.6967 2.27374e-13 -25.65 2 -17.6055 22.9145 34.958 0.5 -1.5 2.65 163.106 76.2927 7.2739 0 -3.8 3.7 0.0607714 51.4406 0.0301877 0 -3 2.7 0.00711304 11.0516 -0.00740295 0 -1.9 1.6 -4.69152e-06 6.47977e-06 -2.56683e-06 -1.13687e-13 -8.3 1.9 0.734268 -7.29443 0.000463632 0 -4.5 0 -0.0112862 -0.00369953 0.0146068 0 -3.4 0 -0.000120433 -0.0179376 -0.418148 0.25 -2.2 0.4 -4.69152e-06 6.47977e-06 -2.56683e-06 0 -8.3 1 1.4813 -4.21054 -0.00618859 0 -4.65 0 -0.00323822 0.0356542 0.000207816 2.27374e-13 -3.3 0 -4.81798e-05 -0.00966678 0.000319715 0.5 -2.15 -0.8 -4.69152e-06 6.47977e-06 -2.56683e-06 2.27374e-13 -7.75 -0.2 2.99822 1.60126 -0.128125 -2.27374e-13 -3.8 -1.13687e-13 0.109074 0.0324543 -0.00537004 0 -3.4 1.13687e-13 0.120025 0.00415371 -0.00536675 0.75 -1.75 -1.85 -4.69152e-06 6.47977e-06 -2.56683e-06 2.27374e-13 -7.15 -1 3.81545 4.50245 -0.249045 0 -3 0 0.00779055 0.0166736 0.00160529 0 -2.35 -1.13687e-13 -0.0076417 0.0130228 -0.00187717 8 0 -1.13687e-13 16.7294 -15.4128 3.1173 -2.27374e-13 -45 -1 -4.86678 2.00518 1.71967 0 -41 -2 -4.25932 8.35785 -22.2272 2.27374e-13 -7.5 12.5 5.71136e-07 -0.00798189 -6.79088e-07 0 0 4 4.02756 -6.56579 -13.6993 -8 0 0 3.03442 8.88022 -12.187 -2.27374e-13 -45 -1 13.4593 -12.527 1.61136 0 -41 -2 -8.71505 4.78196 -24.0408 0 -7.5 12.5 0.000109996 0.927872 -0.00677512 0 -1.77636e-15 4 0.298679 1.86481 28.4325 
